<svg id="Layer_1" data-name="Layer 1" xmlns="http://www.w3.org/2000/svg" viewBox="0 0 276 60"><defs><style>.cls-1{font-size:33.14px;font-family:Montserrat-ExtraLight, Montserrat;letter-spacing:-0.02em;}.cls-2{letter-spacing:-0.02em;}.cls-3{letter-spacing:-0.04em;}.cls-4{letter-spacing:-0.04em;}.cls-5{letter-spacing:-0.05em;}</style></defs><title>peterpetracca-logo-dark</title><path d="M2.51,4.55A1.29,1.29,0,0,1,3.76,3.39c4.58,0,9.16,0,13.74,0a16.39,16.39,0,0,1,4.94.39,11.52,11.52,0,0,1,2.76,1c.65.45,1.35.83,2,1.33a12.78,12.78,0,0,1,4.72,8.75,12.53,12.53,0,0,1,8,3.82,12.64,12.64,0,0,1-8.28,21.36c-.77,0-1.53,0-2.3,0-4.32,0-8.64,0-13,0,0,1.9,0,3.8-.08,5.71,0,2.49,0,5,0,7.48a2.13,2.13,0,0,1-.27,1.43,1.2,1.2,0,0,1-1.62.16,14.42,14.42,0,0,1-1.28-1.19c-3.34-3.35-6.7-6.68-10-10a1.76,1.76,0,0,1-.58-1.2c0-1.35,0-2.69,0-4,0-2.38,0-4.58,0-6.91,0-1.1.07-2.2,0-3.29A2.78,2.78,0,0,1,2.67,27a1.14,1.14,0,0,1,1-.65c1.83,0,3.67-.05,5.51,0,2.88,0,5.76,0,8.64,0a18.54,18.54,0,0,0,3.57-.18,10.43,10.43,0,0,0,7-5.21,10.55,10.55,0,0,0,1.18-3.7c-4.62,0-9.24,0-13.86,0a1.8,1.8,0,0,1-1.33-.42L11.44,13.9c-1.58-1.52-3.1-3.1-4.67-4.62L3.28,5.78A2.48,2.48,0,0,1,2.51,4.55Zm4,1.14C7.27,6.46,8,7.27,8.78,8c1.83,1.84,3.72,3.63,5.52,5.51a11,11,0,0,0,1.3,1.25,1.16,1.16,0,0,0,.66.14c1.15,0,2.3,0,3.46,0,3.28,0,6.56,0,9.85,0a11.18,11.18,0,0,0-.7-2.67A10.68,10.68,0,0,0,25.67,8a6.93,6.93,0,0,0-.58-.5,10.85,10.85,0,0,0-5.46-1.8H14.37C11.75,5.61,9.13,5.68,6.51,5.69Zm25.35,11.6a12.85,12.85,0,0,1-1.94,5.6A12.7,12.7,0,0,1,23,28.14a16.64,16.64,0,0,1-3.51.53c-.55,0-1.09.09-1.64.08H4.93c-.08,4.32,0,8.64-.06,13a1.69,1.69,0,0,0,.62.92c.74.71,1.46,1.45,2.18,2.17C8.8,46,9.89,47.13,11,48.27s2,2,3.07,3c0-1.48,0-3,0-4.45-.09-2.72.06-5.44,0-8.15,0-.56.59-.89,1.09-.9,3.7,0,7.4-.06,11.11,0,1.75,0,3.5,0,5.24,0a9.47,9.47,0,0,0,2-.35,10.33,10.33,0,0,0,6.33-5.1,10.19,10.19,0,0,0,.25-9.13,10.75,10.75,0,0,0-2.93-3.73,8.67,8.67,0,0,0-3.31-1.72A10.19,10.19,0,0,0,31.86,17.29Z"/><text class="cls-1" transform="translate(49.71 39.56)">Pe<tspan class="cls-2" x="40.52" y="0">t</tspan><tspan x="52.06" y="0">er Pet</tspan><tspan class="cls-3" x="143.54" y="0">r</tspan><tspan x="153.71" y="0">a</tspan><tspan class="cls-4" x="172.01" y="0">c</tspan><tspan class="cls-5" x="189.1" y="0">c</tspan><tspan x="205.94" y="0">a</tspan></text></svg>